<svg width="244" height="171" viewBox="0 0 244 171" fill="none" xmlns="http://www.w3.org/2000/svg">
<path fill-rule="evenodd" clip-rule="evenodd" d="M122.015 0C146.486 0 166.323 19.8363 166.323 44.3057C166.323 68.775 146.486 88.6111 122.015 88.6111C97.5439 88.6111 77.7066 68.775 77.7066 44.3057C77.7066 19.8363 97.5439 0 122.015 0ZM47.9927 227.535C28.1953 213.153 23.8066 185.445 38.1902 165.649C52.5738 145.853 80.2828 141.464 100.08 155.847C119.878 170.23 124.266 197.937 109.883 217.734C95.4992 237.53 67.79 241.918 47.9927 227.535ZM205.983 165.649C220.367 185.445 215.979 213.153 196.181 227.535C176.384 241.918 148.674 237.53 134.291 217.734C119.907 197.937 124.296 170.23 144.093 155.847C163.891 141.464 191.6 145.853 205.983 165.649ZM2.18058 86.8435C9.74249 63.5721 34.7392 50.8363 58.0124 58.3978C81.2857 65.9592 94.0222 90.9548 86.4603 114.226C78.8984 137.498 53.9015 150.233 30.6283 142.672C7.35511 135.11 -5.38134 110.116 2.18058 86.8435ZM185.988 58.3978C209.261 50.8363 234.258 63.5721 241.819 86.8435C249.381 110.116 236.645 135.11 213.372 142.672C190.098 150.233 165.102 137.498 157.54 114.226C149.978 90.9548 162.715 65.9592 185.988 58.3978Z" fill="#555680"/>
</svg>
