<svg width="330" height="127" viewBox="0 0 330 127" fill="none" xmlns="http://www.w3.org/2000/svg">
<path d="M6.03664 49.19C6.03664 45.8409 3.33387 43.1255 0 43.1255V0C27.0418 0 48.9634 22.0231 48.9634 49.19V138.81C48.9634 142.159 51.6661 144.875 55 144.875C58.334 144.875 61.0366 142.159 61.0366 138.81V49.19C61.0366 22.0231 82.9583 0 110 0C137.042 0 158.963 22.0231 158.963 49.19V138.81C158.963 142.159 161.667 144.875 165 144.875C168.333 144.875 171.037 142.159 171.037 138.81V49.19C171.037 22.0231 192.958 0 220 0C247.042 0 268.964 22.0231 268.964 49.19V138.81C268.964 142.159 271.666 144.875 275 144.875C278.334 144.875 281.037 142.159 281.037 138.81V49.19C281.037 22.0231 302.959 0 330 0V43.1255C326.667 43.1255 323.963 45.8409 323.963 49.19V138.81C323.963 165.977 302.042 188 275 188C247.958 188 226.036 165.977 226.036 138.81V49.19C226.036 45.8409 223.334 43.1255 220 43.1255C216.666 43.1255 213.963 45.8409 213.963 49.19V138.81C213.963 165.977 192.041 188 165 188C137.959 188 116.037 165.977 116.037 138.81V49.19C116.037 45.8409 113.334 43.1255 110 43.1255C106.666 43.1255 103.964 45.8409 103.964 49.19V138.81C103.964 165.977 82.0417 188 55 188C27.9582 188 6.03664 165.977 6.03664 138.81V49.19Z" fill="#F2C94C"/>
</svg>
