<svg width="83" height="16" viewBox="0 0 83 16" fill="none" xmlns="http://www.w3.org/2000/svg">
<path d="M3.77498 3.79381L6.29965 12.3004H6.39583L8.9205 3.79381H12.6955L8.63196 15.8586H4.06351L0 3.79381H3.77498Z" fill="white"/>
<path d="M13.8812 15.8586V3.79381H22.7536V6.43299H17.2234V8.50663H22.2967V11.1458H17.2234V13.2194H22.7295V15.8586H13.8812ZM16.4539 2.73343C16.0452 2.73343 15.6985 2.5999 15.414 2.33284C15.1295 2.06578 14.9872 1.74374 14.9872 1.36672C14.9872 0.98969 15.1295 0.667648 15.414 0.400589C15.6985 0.13353 16.0452 0 16.4539 0C16.8507 0 17.1893 0.13353 17.4698 0.400589C17.7543 0.667648 17.8966 0.98969 17.8966 1.36672C17.8966 1.74374 17.7543 2.06578 17.4698 2.33284C17.1893 2.5999 16.8507 2.73343 16.4539 2.73343ZM20.277 2.73343C19.8682 2.73343 19.5216 2.5999 19.2371 2.33284C18.9526 2.06578 18.8103 1.74374 18.8103 1.36672C18.8103 0.98969 18.9526 0.667648 19.2371 0.400589C19.5216 0.13353 19.8682 0 20.277 0C20.6737 0 21.0124 0.13353 21.2929 0.400589C21.5774 0.667648 21.7197 0.98969 21.7197 1.36672C21.7197 1.74374 21.5774 2.06578 21.2929 2.33284C21.0124 2.5999 20.6737 2.73343 20.277 2.73343Z" fill="white"/>
<path d="M24.4111 15.8586V3.79381H29.725C30.6387 3.79381 31.4381 3.9568 32.1234 4.28277C32.8087 4.60874 33.3417 5.07806 33.7224 5.69072C34.1031 6.30339 34.2934 7.0378 34.2934 7.89396C34.2934 8.75798 34.0971 9.4865 33.7043 10.0795C33.3156 10.6726 32.7686 11.1203 32.0633 11.4227C31.362 11.7251 30.5425 11.8763 29.6047 11.8763H26.4309V9.33137H28.9315C29.3242 9.33137 29.6588 9.28424 29.9354 9.18998C30.2159 9.0918 30.4303 8.93667 30.5786 8.72459C30.7308 8.51252 30.807 8.23564 30.807 7.89396C30.807 7.54836 30.7308 7.26755 30.5786 7.05155C30.4303 6.83161 30.2159 6.67059 29.9354 6.56848C29.6588 6.46244 29.3242 6.40942 28.9315 6.40942H27.7533V15.8586H24.4111ZM31.6245 10.3211L34.7022 15.8586H31.0715L28.0659 10.3211H31.6245Z" fill="white"/>
<path d="M42.3543 7.56406C42.3223 7.17133 42.172 6.865 41.9035 6.64507C41.639 6.42513 41.2363 6.31517 40.6953 6.31517C40.3506 6.31517 40.0681 6.35641 39.8477 6.43888C39.6313 6.51743 39.471 6.62543 39.3668 6.76289C39.2626 6.90034 39.2085 7.05744 39.2045 7.23417C39.1965 7.37948 39.2225 7.51104 39.2826 7.62887C39.3468 7.74276 39.447 7.84683 39.5832 7.94109C39.7195 8.03142 39.8938 8.11389 40.1062 8.18851C40.3186 8.26313 40.571 8.3299 40.8636 8.38881L41.8734 8.60088C42.5547 8.74227 43.1378 8.92882 43.6227 9.16053C44.1076 9.39224 44.5043 9.66519 44.8129 9.97938C45.1214 10.2896 45.3479 10.6392 45.4921 11.028C45.6404 11.4168 45.7165 11.8409 45.7206 12.3004C45.7165 13.0938 45.5142 13.7653 45.1134 14.3152C44.7127 14.865 44.1396 15.2833 43.3943 15.57C42.6529 15.8567 41.7612 16 40.7193 16C39.6493 16 38.7156 15.8449 37.9181 15.5346C37.1247 15.2243 36.5075 14.7472 36.0667 14.1031C35.6299 13.4551 35.4095 12.6264 35.4055 11.6171H38.5793C38.5994 11.9863 38.6936 12.2965 38.8619 12.5479C39.0302 12.7992 39.2666 12.9897 39.5712 13.1193C39.8798 13.2489 40.2464 13.3137 40.6712 13.3137C41.0279 13.3137 41.3264 13.2705 41.5669 13.1841C41.8073 13.0977 41.9897 12.9779 42.1139 12.8247C42.2381 12.6716 42.3022 12.4968 42.3062 12.3004C42.3022 12.1159 42.2401 11.9548 42.1199 11.8174C42.0037 11.676 41.8113 11.5503 41.5428 11.4404C41.2743 11.3265 40.9117 11.2204 40.4548 11.1222L39.2285 10.863C38.1385 10.6313 37.2789 10.2445 36.6498 9.7025C36.0246 9.1566 35.7141 8.41237 35.7181 7.46981C35.7141 6.70398 35.9224 6.03436 36.3432 5.46097C36.768 4.88365 37.3551 4.43397 38.1045 4.11193C38.8579 3.78989 39.7215 3.62887 40.6953 3.62887C41.6891 3.62887 42.5487 3.79185 43.274 4.11782C43.9994 4.44379 44.5584 4.90329 44.9511 5.49632C45.3479 6.08542 45.5482 6.77467 45.5522 7.56406H42.3543Z" fill="white"/>
<path d="M46.6553 6.43299V3.79381H57.3551V6.43299H53.6522V15.8586H50.3581V6.43299H46.6553Z" fill="white"/>
<path d="M58.6129 15.8586V3.79381H61.9551V8.67157H62.1234L65.8262 3.79381H69.7214L65.5617 9.16642L69.8176 15.8586H65.8262L63.0611 11.3343L61.9551 12.7482V15.8586H58.6129Z" fill="white"/>
<path d="M73.9112 15.8586H70.3045L74.368 3.79381H78.9365L83 15.8586H79.3933L76.7003 7.11635H76.6042L73.9112 15.8586ZM73.2379 11.0987H80.0185V13.5493H73.2379V11.0987Z" fill="white"/>
</svg>
